<svg xmlns="http://www.w3.org/2000/svg" viewBox="0 0 320 240" fill="none">
  <path d="M61 164c18-72 70-111 119-105 35 4 61 28 79 65-28-26-56-36-80-29 18 13 32 30 39 52-28-23-54-29-78-17 13 11 22 25 28 43-29-18-57-21-85-9 13-15 29-27 48-34-29-2-52 9-71 34Z" fill="#0f6772"/>
  <path d="M152 74c9-37 32-56 61-62-18 17-26 36-23 57 14-14 30-22 50-24-17 18-24 37-20 58-13-13-28-21-46-23-2 20-11 38-28 54 3-22-5-42-22-60 11 2 20 2 28 0Z" fill="#d09a39"/>
  <path d="M126 126c-19-23-42-33-70-30 19 10 32 23 39 41-23-8-44-5-63 9 25-1 44 8 58 28 11-21 24-37 36-48Z" fill="#c8653d"/>
  <path d="M154 137c23 6 45 22 66 48-29-16-58-17-87-2 9-18 16-34 21-46Z" fill="#55b9bd"/>
  <circle cx="163" cy="79" r="4" fill="#241f1a"/>
  <path d="m174 86 22 6-22 7" fill="#c8653d"/>
  <path d="M65 190c58-18 121-17 188 2" stroke="#d09a39" stroke-width="5" stroke-linecap="round"/>
</svg>
